<?xml version="1.0" encoding="UTF-8" standalone="no"?>
<!DOCTYPE svg PUBLIC "-//W3C//DTD SVG 1.1//EN" "http://www.w3.org/Graphics/SVG/1.1/DTD/svg11.dtd">
<svg width="100%" height="100%" viewBox="0 0 1563 1563" version="1.1" xmlns="http://www.w3.org/2000/svg" xmlns:xlink="http://www.w3.org/1999/xlink" xml:space="preserve" xmlns:serif="http://www.serif.com/" style="fill-rule:evenodd;clip-rule:evenodd;stroke-linejoin:round;stroke-miterlimit:2;">
    <g transform="matrix(2.173147,0,0,-2.173147,249.13636,826.283859)">
        <path d="M466.62,92.94L389.21,80.24C389.21,80.24 373.35,116.94 315.72,154.83C310.939,157.983 305.939,160.74 300.72,163.1C297.87,164.38 294.4,165.86 290.35,167.43C197.52,203.32 92.31,168.8 36.82,86.12C18.27,58.48 1.57,23.12 1.11,-15.19C1.11,-15.19 -6.71,31.35 19.21,89.51C65.39,193.15 176.8,253.13 288.74,234.6C311.4,230.821 333.226,224.268 354.22,214.94C354.22,214.94 423.14,186.28 466.62,92.94Z" style="fill:rgb(10,188,245);fill-rule:nonzero;"/>
    </g>
    <g transform="matrix(2.173147,0,0,-2.173147,249.13636,1296.627236)">
        <path d="M290.67,196.614L290.67,196.714C290.095,195.118 289.438,193.557 288.697,192.031C287.956,190.505 287.136,189.023 286.237,187.584C285.338,186.146 284.365,184.759 283.318,183.424C282.272,182.089 281.157,180.814 279.974,179.598C278.791,178.382 277.547,177.232 276.242,176.148C274.937,175.065 273.578,174.054 272.165,173.116C270.752,172.177 269.293,171.316 267.788,170.533C266.283,169.75 264.741,169.049 263.161,168.431C261.582,167.812 259.974,167.279 258.337,166.832C256.701,166.385 255.046,166.026 253.371,165.755C251.696,165.484 250.012,165.303 248.318,165.212C246.624,165.121 244.93,165.12 243.236,165.209C241.542,165.299 239.858,165.478 238.183,165.747C236.508,166.016 234.852,166.373 233.216,166.818C231.579,167.264 229.97,167.795 228.39,168.412C226.81,169.029 225.267,169.728 223.761,170.509C222.256,171.291 220.796,172.15 219.382,173.087C217.967,174.024 216.607,175.033 215.301,176.115C213.994,177.197 212.749,178.346 211.565,179.561C210.381,180.775 209.265,182.05 208.217,183.383C207.168,184.717 206.194,186.103 205.293,187.54C204.393,188.978 203.571,190.459 202.829,191.984C202.086,193.51 201.427,195.07 200.851,196.665C200.274,198.261 199.784,199.883 199.381,201.53C198.978,203.178 198.663,204.842 198.437,206.524C198.211,208.205 198.075,209.893 198.029,211.589C197.983,213.285 198.027,214.978 198.162,216.669C198.296,218.36 198.52,220.039 198.834,221.706C199.147,223.373 199.549,225.019 200.038,226.644C200.527,228.268 201.1,229.862 201.759,231.425C202.418,232.988 203.158,234.512 203.98,235.996C204.801,237.48 205.699,238.917 206.673,240.305C207.647,241.694 208.693,243.027 209.809,244.304C210.926,245.581 212.107,246.795 213.353,247.946C214.599,249.098 215.902,250.179 217.264,251.192C218.625,252.204 220.036,253.141 221.497,254.003C222.958,254.865 224.461,255.646 226.005,256.348C227.55,257.05 229.127,257.667 230.738,258.201C232.348,258.734 233.982,259.181 235.64,259.54C237.298,259.899 238.97,260.169 240.657,260.35C242.343,260.531 244.035,260.622 245.731,260.623C247.427,260.624 249.119,260.534 250.806,260.355C252.493,260.175 254.165,259.906 255.823,259.549C257.481,259.191 259.116,258.746 260.727,258.214C262.337,257.681 263.915,257.065 265.46,256.365C267.005,255.665 268.509,254.884 269.971,254.024C271.432,253.163 272.844,252.227 274.207,251.216C275.569,250.205 276.873,249.124 278.12,247.974L278.12,248.054L496.36,289.254L290.67,196.614Z" style="fill:rgb(10,188,245);fill-rule:nonzero;"/>
    </g>
    <g transform="matrix(4.166667,0,0,4.166667,0,0)">
        <g>
            <text x="30.707px" y="292.342px" style="font-family:'ArialMT', 'Arial', sans-serif;font-size:69.97px;fill:rgb(10,188,245);">F<tspan x="75.872px 93.842px 135.18px " y="292.342px 292.342px 292.342px ">lux</tspan></text>
        </g>
    </g>
    <g transform="matrix(4.166667,0,0,4.166667,0,0)">
        <g>
            <text x="176.04px" y="292.342px" style="font-family:'ArialMT', 'Arial', sans-serif;font-size:69.97px;fill:white;">S<tspan x="223.64px 244.009px 283.853px 304.223px " y="292.342px 292.342px 292.342px 292.342px ">tate</tspan></text>
        </g>
    </g>
    <g transform="matrix(4.166667,0,0,4.166667,0,-379.726625)">
        <rect x="56.298" y="157.173" width="262.403" height="159.828" style="fill-opacity:0;"/>
    </g>
</svg>
