<?xml version="1.0" encoding="UTF-8" standalone="no"?><!DOCTYPE svg PUBLIC "-//W3C//DTD SVG 1.1//EN" "http://www.w3.org/Graphics/SVG/1.1/DTD/svg11.dtd"><svg width="100%" height="100%" viewBox="0 0 375 375" version="1.1" xmlns="http://www.w3.org/2000/svg" xmlns:xlink="http://www.w3.org/1999/xlink" xml:space="preserve" xmlns:serif="http://www.serif.com/" style="fill-rule:evenodd;clip-rule:evenodd;stroke-linejoin:round;stroke-miterlimit:2;"><path d="M216.117,263.706l0,-0.067c-0.387,1.075 -0.83,2.126 -1.329,3.154c-0.499,1.028 -1.051,2.026 -1.657,2.995c-0.605,0.969 -1.261,1.903 -1.966,2.802c-0.705,0.899 -1.456,1.758 -2.252,2.577c-0.797,0.819 -1.634,1.593 -2.514,2.323c-0.879,0.73 -1.795,1.411 -2.746,2.043c-0.952,0.632 -1.934,1.212 -2.948,1.739c-1.014,0.527 -2.052,0.999 -3.116,1.416c-1.064,0.417 -2.147,0.776 -3.249,1.077c-1.102,0.301 -2.217,0.543 -3.345,0.725c-1.128,0.182 -2.262,0.304 -3.403,0.366c-1.141,0.061 -2.282,0.062 -3.423,0.002c-1.141,-0.06 -2.275,-0.181 -3.404,-0.362c-1.128,-0.181 -2.243,-0.422 -3.346,-0.722c-1.102,-0.3 -2.186,-0.658 -3.25,-1.073c-1.064,-0.416 -2.104,-0.886 -3.118,-1.413c-1.014,-0.526 -1.997,-1.105 -2.95,-1.736c-0.952,-0.631 -1.869,-1.311 -2.749,-2.04c-0.88,-0.729 -1.719,-1.502 -2.516,-2.32c-0.797,-0.818 -1.549,-1.676 -2.255,-2.575c-0.706,-0.898 -1.362,-1.832 -1.969,-2.8c-0.607,-0.968 -1.16,-1.966 -1.66,-2.993c-0.5,-1.027 -0.944,-2.078 -1.332,-3.153c-0.388,-1.075 -0.718,-2.167 -0.99,-3.277c-0.272,-1.11 -0.484,-2.231 -0.636,-3.363c-0.152,-1.132 -0.244,-2.27 -0.275,-3.412c-0.031,-1.142 -0.001,-2.283 0.089,-3.422c0.091,-1.139 0.241,-2.27 0.453,-3.393c0.211,-1.123 0.481,-2.231 0.811,-3.325c0.329,-1.094 0.716,-2.168 1.16,-3.22c0.444,-1.053 0.942,-2.079 1.495,-3.079c0.553,-1 1.158,-1.967 1.814,-2.902c0.656,-0.935 1.36,-1.833 2.112,-2.693c0.752,-0.86 1.548,-1.678 2.387,-2.453c0.839,-0.775 1.717,-1.504 2.634,-2.186c0.917,-0.682 1.867,-1.313 2.851,-1.893c0.984,-0.58 1.996,-1.107 3.036,-1.58c1.04,-0.473 2.103,-0.889 3.187,-1.248c1.085,-0.359 2.185,-0.66 3.302,-0.902c1.117,-0.242 2.243,-0.424 3.379,-0.546c1.136,-0.122 2.275,-0.183 3.418,-0.184c1.143,-0 2.282,0.06 3.418,0.181c1.136,0.121 2.263,0.302 3.379,0.543c1.117,0.241 2.218,0.541 3.303,0.899c1.085,0.358 2.148,0.773 3.188,1.245c1.041,0.472 2.053,0.997 3.038,1.577c0.985,0.58 1.936,1.21 2.853,1.891c0.917,0.681 1.796,1.409 2.636,2.183l0,-0.054l146.991,-27.749l-138.538,62.396Z" style="fill:#0abcf5;fill-rule:nonzero;"/><path d="M334.625,187.759l-52.138,8.554c0,0 -10.682,-24.718 -49.498,-50.238c-3.22,-2.124 -6.588,-3.98 -10.103,-5.57c-1.92,-0.862 -4.257,-1.859 -6.984,-2.916c-62.524,-24.173 -133.386,-0.923 -170.76,54.765c-12.494,18.616 -23.742,42.432 -24.052,68.235c0,0 -5.267,-31.346 12.191,-70.518c31.104,-69.804 106.141,-110.203 181.536,-97.722c15.262,2.545 29.963,6.959 44.103,13.242c0,0 46.42,19.303 75.705,82.17Z" style="fill:#0abcf5;fill-rule:nonzero;"/></svg>